# xmcd
#
# Track frame offsets:
#	150
#	11406
#	23442
#	37823
#	46599
#	57244
#	68030
#	82544
#	100894
#	118741
#	142095
#	164260
#	177589
#	195596
#	204005
#	218210
#	229211
#	245424
#
# Disc length: 3501 seconds
#
# Revision: 0
# Processed by: cddbd v1.5.2PL0 Copyright (c) Steve Scherf et al.
# Submitted via: EasyCDDAExtractor 10.0.6.1
#
DISCID=e00dab12
DTITLE=Simon and Garfunkel - The Best Of Simon And Garfunkel Disc 2 of 2
DYEAR=2009
DGENRE=pop
TTITLE0=Homeward Bound
TTITLE1=The Dangling Conversation
TTITLE2=Scarborough Fair/Canticle\n
TTITLE3=The 59th Street Bridge Song (F\n
TTITLE4=A Hazy Shade of Winter\n
TTITLE5=At the Zoo\n
TTITLE6=Fakin' It [Mono Version][Versi\n
TTITLE7=Mrs. Robinson\n
TTITLE8=Old Friends/Bookends\n
TTITLE9=The Boxer\n
TTITLE10=Bridge Over Troubled Water\n
TTITLE11=Cecilia
TTITLE12=The Only Living Boy in New Yor\n
TTITLE13=Song for the Asking\n
TTITLE14=El Condor Pasa (If I Could]\n
TTITLE15=For Emily, Whenever I May Find\n
TTITLE16=America
TTITLE17=My Little Town
EXTD=
EXTT0=
EXTT1=
EXTT2=
EXTT3=
EXTT4=
EXTT5=
EXTT6=
EXTT7=
EXTT8=
EXTT9=
EXTT10=
EXTT11=
EXTT12=
EXTT13=
EXTT14=
EXTT15=
EXTT16=
EXTT17=
PLAYORDER=
